<?xml version="1.0" encoding="UTF-8" standalone="no"?><svg xmlns="http://www.w3.org/2000/svg" xmlns:xlink="http://www.w3.org/1999/xlink" style="isolation:isolate" viewBox="0 0.968 498.582 120.776" width="498.582pt" height="120.776pt"><path d=" M 453.331 64.819 L 476.52 64.819 L 476.52 64.819 L 461.704 115.384 L 498.582 115.384 L 498.582 121.745 L 377 121.745 L 378.852 115.384 L 400.833 115.384 L 415.648 64.819 L 438.838 64.819 L 424.022 115.384 L 438.515 115.384 L 453.331 64.819 L 453.331 64.819 Z  M 384.166 7.329 L 386.018 0.968 L 386.018 0.968 L 498.582 0.968 L 498.582 4.511 L 498.582 7.329 L 498.582 7.49 L 482.72 61.437 L 459.531 61.437 L 475.473 7.329 L 384.166 7.329 L 384.166 7.329 Z  M 296.183 64.819 L 319.372 64.819 L 319.372 64.819 L 304.557 115.384 L 370.582 115.384 L 370.582 121.745 L 249 121.745 L 250.852 115.384 L 281.368 115.384 L 296.183 64.819 L 296.183 64.819 Z  M 256.166 7.329 L 258.018 0.968 L 258.018 0.968 L 370.582 0.968 L 370.582 4.511 L 370.582 7.329 L 370.582 7.49 L 354.72 61.437 L 331.531 61.437 L 347.473 7.329 L 256.166 7.329 L 256.166 7.329 Z  M 201.377 35.108 L 143.002 35.108 L 143.002 35.108 L 143.002 35.108 Q 135.997 35.108 131.045 30.156 L 131.045 30.156 L 131.045 30.156 Q 126.093 25.204 126.093 18.199 L 126.093 18.199 L 126.093 18.199 Q 126.093 11.194 131.045 6.242 L 131.045 6.242 L 131.045 6.242 Q 135.997 1.29 143.002 1.29 L 143.002 1.29 L 201.377 1.29 L 201.377 1.29 Q 208.382 1.29 213.334 6.242 L 213.334 6.242 L 213.334 6.242 Q 218.286 11.194 218.286 18.199 L 218.286 18.199 L 218.286 18.199 Q 218.286 25.204 213.334 30.156 L 213.334 30.156 L 213.334 30.156 Q 208.382 35.108 201.377 35.108 L 201.377 35.108 L 201.377 35.108 Z  M 185.515 7.651 L 158.864 7.651 L 158.864 7.651 L 158.864 7.651 Q 154.516 7.651 151.416 10.751 L 151.416 10.751 L 151.416 10.751 Q 148.316 13.851 148.316 18.199 L 148.316 18.199 L 148.316 18.199 Q 148.316 22.628 151.416 25.687 L 151.416 25.687 L 151.416 25.687 Q 154.516 28.747 158.864 28.747 L 158.864 28.747 L 185.515 28.747 L 185.515 28.747 Q 189.863 28.747 192.963 25.687 L 192.963 25.687 L 192.963 25.687 Q 196.063 22.628 196.063 18.199 L 196.063 18.199 L 196.063 18.199 Q 196.063 13.851 192.963 10.751 L 192.963 10.751 L 192.963 10.751 Q 189.863 7.651 185.515 7.651 L 185.515 7.651 L 185.515 7.651 Z  M 242.361 0.968 L 242.361 64.819 L 242.361 64.819 L 220.138 64.819 L 220.138 55.64 L 192.843 55.64 L 194.694 49.359 L 220.138 49.359 L 220.138 44.931 L 182.053 44.931 L 176.095 64.819 L 171.103 64.819 L 156.207 115.384 L 234.068 115.384 L 232.216 121.745 L 133.098 121.745 L 133.098 118.282 L 133.098 115.384 L 133.098 115.223 L 147.914 64.819 L 152.906 64.819 L 158.945 44.931 L 124 44.931 L 125.852 38.57 L 220.138 38.57 L 220.138 0.968 L 242.361 0.968 L 242.361 0.968 Z  M 43.238 65.06 L 90.582 65.06 L 90.582 65.06 L 90.582 65.06 Q 101.774 65.06 109.705 72.951 L 109.705 72.951 L 109.705 72.951 Q 117.636 80.842 117.636 92.034 L 117.636 92.034 L 117.636 94.771 L 117.636 94.771 Q 117.636 105.963 109.705 113.854 L 109.705 113.854 L 109.705 113.854 Q 101.774 121.745 90.582 121.745 L 90.582 121.745 L 43.238 121.745 L 43.238 121.745 Q 31.965 121.745 24.075 113.854 L 24.075 113.854 L 24.075 113.854 Q 16.184 105.963 16.184 94.771 L 16.184 94.771 L 16.184 92.034 L 16.184 92.034 Q 16.184 80.842 24.075 72.951 L 24.075 72.951 L 24.075 72.951 Q 31.965 65.06 43.238 65.06 L 43.238 65.06 L 43.238 65.06 Z  M 60.308 115.303 L 73.513 115.303 L 73.513 115.303 L 73.513 115.303 Q 82.611 115.303 89.052 108.902 L 89.052 108.902 L 89.052 108.902 Q 95.494 102.501 95.494 93.402 L 95.494 93.402 L 95.494 93.402 Q 95.494 84.304 89.052 77.903 L 89.052 77.903 L 89.052 77.903 Q 82.611 71.502 73.513 71.502 L 73.513 71.502 L 60.308 71.502 L 60.308 71.502 Q 51.209 71.502 44.768 77.903 L 44.768 77.903 L 44.768 77.903 Q 38.326 84.304 38.326 93.402 L 38.326 93.402 L 38.326 93.402 Q 38.326 102.501 44.768 108.902 L 44.768 108.902 L 44.768 108.902 Q 51.209 115.303 60.308 115.303 L 60.308 115.303 L 60.308 115.303 Z  M 95.494 16.589 L 95.494 0.968 L 95.494 0.968 L 117.636 0.968 L 117.636 61.195 L 95.494 61.195 L 95.494 24.64 L 66.266 47.266 L 81.645 61.195 L 72.385 61.195 L 47.505 38.812 L 28.825 61.276 L 0 61.276 L 37.924 15.703 L 4.912 15.703 L 6.844 9.423 L 43.238 9.423 L 50.162 1.049 L 78.746 1.049 L 71.822 9.423 L 81.645 9.423 L 81.645 15.703 L 66.588 15.703 L 51.531 33.9 L 64.334 45.495 L 66.105 39.375 L 95.494 16.589 L 95.494 16.589 Z " fill="rgb(0,0,0)"/></svg>